<svg width="135" height="53" viewBox="0 0 135 53" fill="none" xmlns="http://www.w3.org/2000/svg">
<g clip-path="url(#clip0_2_104)">
<path d="M45.6069 21.1227L40.5296 20.9738L36.6365 20.8546C36.4293 19.4842 36.0148 18.1882 35.4375 16.9816C35.3783 16.8625 35.3191 16.7582 35.2598 16.639C35.1562 16.4305 35.0526 16.2219 34.9342 16.0283C34.4013 15.075 33.75 14.1812 32.9654 13.347C27.6809 7.71632 18.9769 7.59715 13.2483 12.781C12.4194 13.5407 11.4128 15.0154 11.4128 15.0154C10.3618 16.505 9.60688 18.218 9.22202 20.0502H9.20721L5.29932 19.931C5.92103 16.2368 7.69735 12.7065 10.6135 9.93583C17.7483 3.14325 29.0427 3.47096 35.7927 10.6657C37.2434 12.2149 38.3684 13.9577 39.1677 15.8049L44.6151 15.9687C43.6085 12.781 41.8914 9.77197 39.4638 7.18007C30.8043 -2.02567 16.3125 -2.44276 7.14965 6.27141C1.90952 11.2616 -0.473707 18.1733 0.0739906 24.9063L5.15129 25.0553L9.05919 25.1595C9.47366 27.8855 10.6875 30.5072 12.7006 32.6522C17.9852 38.2829 26.8223 38.5362 32.4177 33.2183C33.5871 32.1011 34.5197 30.8349 35.2154 29.4645C35.2154 29.4496 35.2302 29.4198 35.245 29.4049C35.3931 29.107 35.5411 28.8091 35.6595 28.4963C35.7335 28.3324 35.8075 28.1685 35.8668 27.9898C35.8964 27.9004 35.926 27.811 35.9556 27.7217C36.1628 27.1407 36.3404 26.5449 36.4737 25.9341L40.3816 26.0533C39.7598 29.7475 37.9835 33.2779 35.0674 36.0485C27.9325 42.8411 16.6381 42.5134 9.88813 35.3186C8.43748 33.7694 7.31248 32.0266 6.51313 30.1795L1.06577 30.0156C2.07235 33.2034 3.78945 36.2124 6.21708 38.8043C14.8766 48.0398 29.3684 48.4569 38.5312 39.7278C43.7714 34.7377 46.1546 27.8259 45.6069 21.0929V21.1227ZM21.4786 14.1663C24.2763 13.7343 27.222 14.6281 29.3092 16.8625C32.6842 20.4524 32.5214 26.1427 28.9539 29.539C28.0658 30.388 27.0592 30.9988 25.9786 31.4159C25.9638 31.4159 25.9342 31.4159 25.9194 31.4308C25.6973 31.5201 25.4605 31.5797 25.2385 31.6542C25.1348 31.684 25.046 31.6989 24.9424 31.7287C24.7796 31.7734 24.6168 31.8032 24.4539 31.833C24.2911 31.8628 24.1135 31.8925 23.9506 31.9074C23.8322 31.9074 23.7286 31.9372 23.6102 31.9521C23.4029 31.967 23.1809 31.9819 22.9737 31.9819C22.8848 31.9819 22.8108 31.9819 22.722 31.9819C22.5 31.9819 22.2779 31.967 22.0559 31.9372C21.9819 31.9372 21.9079 31.9372 21.8339 31.9223C21.6266 31.8925 21.4194 31.8628 21.2121 31.8181C21.1233 31.8032 21.0345 31.7883 20.9457 31.7734C20.7829 31.7436 20.62 31.684 20.4572 31.6393C20.3388 31.6095 20.2056 31.5797 20.0871 31.535C19.9983 31.5052 19.9095 31.4606 19.8207 31.4308C19.6283 31.3563 19.4358 31.2967 19.2434 31.2073C18.1924 30.7456 17.2006 30.0603 16.3569 29.1666C14.0477 26.6938 13.3964 23.238 14.3733 20.229C15.4391 17.1753 18.148 14.8217 21.4638 14.1812L21.4786 14.1663Z" fill="white"/>
<path d="M50.3882 28.8084H55.2582C55.3026 30.2235 56.6941 31.2514 58.5 31.2514C60.4095 31.2514 61.6234 30.3129 61.6234 28.8978C61.6234 27.0954 59.7138 26.6932 57.7599 26.1867C53.7039 25.1589 50.8174 23.4607 50.8322 19.4984C50.8322 15.7595 54.1924 12.8548 58.6036 12.8697C63.0148 12.8846 66.3602 15.8191 66.3602 19.6772L61.4901 19.6325C61.4901 18.1727 60.1283 17.3534 58.6036 17.3534C57.0493 17.3534 55.7171 18.1429 55.7171 19.4686C55.7171 21.0774 57.5822 21.4796 59.5362 21.986C62.4227 22.7308 66.4046 23.714 66.3898 28.8233C66.3898 32.6665 62.7928 35.7797 58.426 35.7649C53.8224 35.7649 50.3882 32.6069 50.403 28.8084H50.3882Z" fill="white"/>
<path d="M68.6842 24.3549C68.6842 17.9496 73.8503 12.9297 80.1563 12.9297C86.477 12.9297 91.6135 17.9645 91.6135 24.3698C91.6135 30.6112 86.4474 35.7951 80.1414 35.7951C73.8207 35.7951 68.6842 30.5964 68.6842 24.3549ZM86.7878 24.3698C86.7878 20.1691 83.8273 17.5623 80.1711 17.5623C76.5444 17.5623 73.6135 20.1543 73.6135 24.3549C73.6135 28.5556 76.5296 31.1475 80.1563 31.1624C83.8273 31.1624 86.7878 28.4215 86.7878 24.3698Z" fill="white"/>
<path d="M94.6924 26.7679V13.4956H99.5477V27.051C99.5329 29.762 101.324 31.2219 103.944 31.2219C106.564 31.2219 108.281 29.6131 108.281 27.0659V13.5105H113.211V26.7977C113.196 32.1454 109.288 35.8247 103.944 35.8247C98.6003 35.8247 94.7072 32.1156 94.7072 26.7828L94.6924 26.7679Z" fill="white"/>
<path d="M117.888 7.38818H122.729L122.699 35.2437H117.859L117.888 7.38818Z" fill="white"/>
<path d="M70.5197 49.6929H70.4605V52.6572H69.8832V40.0254H70.4605V45.7008H70.5197C71.2895 43.8537 72.9326 42.5279 75.153 42.5279C78.0395 42.5279 80.3339 44.8517 80.3339 47.7415C80.3339 50.6313 78.0247 52.97 75.1382 52.9551C73.0806 52.9551 71.2599 51.7634 70.5049 49.6929H70.5197ZM79.801 47.7266C79.801 45.1347 77.7286 43.094 75.153 43.094C72.5773 43.094 70.5789 45.1347 70.5789 47.7117C70.5789 50.2887 72.6217 52.3444 75.153 52.3444C77.7138 52.3444 79.801 50.2738 79.801 47.7266Z" fill="white"/>
<path d="M82.273 42.8108H88.1349V43.3917H82.8355V52.672H82.2582V42.7959L82.273 42.8108Z" fill="white"/>
<path d="M88.3125 47.7712C88.3125 44.8814 90.6513 42.5874 93.523 42.5874C96.3947 42.5874 98.7188 44.8963 98.7188 47.7861C98.7188 50.6759 96.3799 52.9699 93.5082 52.9699C90.6365 52.9699 88.3125 50.6015 88.3125 47.7712ZM98.1415 47.7712C98.1415 45.1793 96.0691 43.1534 93.523 43.1534C90.977 43.1534 88.8898 45.1793 88.8898 47.7563C88.8898 50.2588 90.9622 52.3741 93.5082 52.3741C96.0543 52.3741 98.1415 50.2588 98.1415 47.7712Z" fill="white"/>
<path d="M100.658 39.9956H101.235V47.0861H104.255L106.949 42.8407H107.6L104.906 47.0861H107.896V52.7168H107.319V47.667H101.235V52.7019H100.658V39.9956Z" fill="white"/>
<path d="M109.317 47.7268C109.317 44.8369 111.656 42.5728 114.528 42.5728C117.4 42.5728 119.724 44.8369 119.724 47.7268V47.9204H109.895C109.998 50.3932 112.026 52.3892 114.513 52.3892C116.378 52.3892 117.992 51.272 118.732 49.6484H119.354C118.584 51.5997 116.719 52.9702 114.498 52.9702C111.627 52.9702 109.303 50.6166 109.303 47.7268H109.317ZM119.132 47.3544C118.954 44.971 116.941 43.1537 114.528 43.1537C112.1 43.1537 110.087 44.9561 109.91 47.3395H119.132V47.3544Z" fill="white"/>
<path d="M121.663 42.8557H127.525V43.4367H122.225V52.7169H121.648V42.8408L121.663 42.8557Z" fill="white"/>
<path d="M128.117 50.274H128.694C128.694 51.3614 129.863 52.4339 131.566 52.4339C133.164 52.4339 134.438 51.4657 134.438 50.2889C134.438 48.695 133.105 48.2779 131.566 47.9055C129.553 47.4139 128.294 46.7883 128.309 45.2093C128.324 43.6304 129.878 42.6025 131.625 42.6025C133.372 42.6025 134.926 43.7495 134.926 45.2093H134.349C134.349 44.0623 133.135 43.1835 131.625 43.1835C130.248 43.1835 128.872 43.973 128.872 45.2093C128.872 46.5947 130.234 46.9522 131.699 47.3395C133.238 47.7566 135 48.1587 135 50.2889C135 51.7934 133.461 53.0148 131.551 53.0148C129.434 53.0148 128.102 51.6742 128.102 50.2889L128.117 50.274Z" fill="white"/>
</g>
<defs>
<clipPath id="clip0_2_104">
<rect width="135" height="53" fill="white"/>
</clipPath>
</defs>
</svg>
